<?xml version="1.0" standalone="no"?>
<!DOCTYPE svg PUBLIC "-//W3C//DTD SVG 20010904//EN"
 "http://www.w3.org/TR/2001/REC-SVG-20010904/DTD/svg10.dtd">
<svg version="1.0" xmlns="http://www.w3.org/2000/svg"
 width="240.000000pt" height="256.000000pt" viewBox="0 0 240.000000 256.000000"
 preserveAspectRatio="xMidYMid meet">

<g transform="translate(0.000000,256.000000) scale(0.100000,-0.100000)"
class="c-threes-company_group-1" stroke="none">
<path d="M965 2284 c-268 -49 -484 -175 -643 -378 -157 -198 -222 -408 -209
-675 10 -208 53 -343 161 -505 139 -208 325 -353 558 -435 144 -50 242 -64
413 -58 164 5 246 22 378 77 274 114 541 419 618 705 32 121 37 330 11 456
-24 118 -75 245 -139 347 -56 91 -183 227 -269 288 -148 105 -359 179 -542
189 l-97 5 120 -24 c470 -93 708 -258 756 -526 10 -55 9 -75 -1 -100 -34 -81
-181 -131 -397 -134 l-102 -1 -88 -91 c-255 -262 -462 -244 -629 53 l-38 68
-9 -40 c-12 -55 -1 -326 17 -400 48 -206 96 -330 194 -510 35 -65 174 -277
178 -272 1 1 -4 31 -12 67 -40 192 8 507 110 709 73 145 149 256 267 388 25
28 38 24 184 -48 254 -125 387 -289 389 -479 1 -86 -16 -127 -100 -240 -167
-227 -399 -375 -670 -426 -135 -25 -359 -16 -479 20 -109 33 -232 92 -300 143
-174 133 -190 386 -46 688 48 101 151 261 223 348 22 26 37 47 34 47 -4 0 -25
-12 -47 -26 -65 -41 -170 -90 -222 -104 -169 -45 -267 68 -255 295 4 68 10 95
40 156 98 205 311 331 693 409 119 24 132 28 85 28 -30 0 -91 -6 -135 -14z"/>
</g>
<g transform="translate(0.000000,256.000000) scale(0.100000,-0.100000)"
class="c-threes-company_group-2" stroke="none">
<path d="M1137 2243 c-4 -3 -7 -89 -7 -190 l0 -183 -166 0 -165 0 7 23 c28 89
150 281 201 314 13 9 22 18 19 20 -6 7 -168 -36 -183 -49 -24 -20 -93 -145
-126 -228 l-31 -80 -153 0 c-168 0 -163 2 -178 -68 l-7 -33 38 26 c102 69 227
46 295 -53 20 -30 24 -48 24 -113 0 -98 16 -88 35 21 22 132 2 120 210 120
l180 0 0 -102 0 -103 50 0 50 0 0 102 0 103 190 0 189 0 11 -38 c5 -22 14 -62
20 -91 5 -29 12 -57 16 -62 3 -5 26 -9 50 -8 51 3 54 13 28 88 -14 38 -14 53
-5 88 12 43 58 98 95 113 14 6 -4 9 -55 9 l-77 1 -23 58 c-32 81 -77 170 -110
218 -26 38 -35 43 -101 59 -40 9 -82 19 -93 22 -14 4 -7 -8 24 -38 75 -75 181
-254 181 -305 0 -11 -31 -14 -170 -14 l-170 0 0 190 0 190 -43 0 c-24 0 -47
-3 -50 -7z"/>
</g>
<g transform="translate(0.000000,256.000000) scale(0.100000,-0.100000)"
class="c-threes-company_group-3" stroke="none">
<path d="M1863 1809 c-88 -25 -99 -156 -16 -198 51 -26 125 -6 149 40 47 92
-32 186 -133 158z"/>
</g>
<g transform="translate(0.000000,256.000000) scale(0.100000,-0.100000)"
class="c-threes-company_group-4" stroke="none">
<path d="M429 1747 c-78 -52 -87 -141 -21 -208 48 -47 96 -57 156 -30 51 22
76 54 83 109 15 115 -119 195 -218 129z"/>
</g>
<g transform="translate(0.000000,256.000000) scale(0.100000,-0.100000)"
class="c-threes-company_group-5" stroke="none">
<path d="M1117 1509 c-29 -17 -49 -68 -43 -105 9 -46 48 -74 103 -74 61 0 93
32 93 94 0 37 -5 48 -31 70 -32 28 -88 35 -122 15z"/>
</g>
<g transform="translate(0.000000,256.000000) scale(0.100000,-0.100000)"
class="c-threes-company_group-6" stroke="none">
<path d="M1670 1390 l0 -50 -75 0 -74 0 -36 -47 -37 -48 113 -3 112 -3 -7 -82
c-8 -95 -32 -247 -47 -294 l-11 -33 -168 0 c-186 0 -170 6 -185 -67 l-7 -33
161 0 c142 0 161 -2 161 -16 0 -9 -21 -60 -47 -113 -38 -76 -63 -112 -124
-173 -44 -46 -69 -78 -60 -78 9 0 50 9 91 20 62 15 81 25 107 55 37 43 107
174 132 248 l18 52 147 5 146 5 30 45 30 45 -160 3 c-88 1 -160 4 -160 5 0 1
9 45 20 97 11 52 23 143 26 203 l7 107 101 0 101 1 -53 49 c-45 42 -59 49
-100 52 -42 3 -47 6 -50 29 -2 19 -14 31 -48 47 -24 12 -47 22 -49 22 -3 0 -5
-22 -5 -50z"/>
</g>
<g transform="translate(0.000000,256.000000) scale(0.100000,-0.100000)"
class="c-threes-company_group-7" stroke="none">
<path d="M670 1234 l-63 -107 17 -116 c10 -64 20 -131 23 -148 l5 -33 -66 0
-66 0 0 -50 0 -50 83 0 82 0 24 -62 c29 -78 82 -178 126 -239 31 -42 39 -46
107 -62 40 -10 84 -17 97 -17 21 0 18 4 -22 35 -54 41 -120 131 -170 230 -57
116 -57 115 2 115 28 0 51 3 51 7 0 4 -7 27 -16 50 -16 42 -17 43 -65 43 -26
0 -51 4 -54 10 -13 20 -46 219 -52 308 l-6 92 26 0 c14 0 28 4 32 9 9 16 -7
91 -20 91 -6 0 -40 -48 -75 -106z"/>
</g>
</svg>
