<?xml version="1.0" encoding="UTF-8" standalone="no"?>
<svg
   xmlns:dc="http://purl.org/dc/elements/1.1/"
   xmlns:cc="http://creativecommons.org/ns#"
   xmlns:rdf="http://www.w3.org/1999/02/22-rdf-syntax-ns#"
   xmlns:svg="http://www.w3.org/2000/svg"
   xmlns="http://www.w3.org/2000/svg"
   id="svg1173"
   xml:space="preserve"
   style="overflow:visible"
   viewBox="0 0 156.26571 71.929698"
   height="71.929703"
   width="156.26572"
   y="0px"
   x="0px"
   version="1.1"><metadata
   id="metadata1177"><rdf:RDF><cc:Work
       rdf:about=""><dc:format>image/svg+xml</dc:format><dc:type
         rdf:resource="http://purl.org/dc/dcmitype/StillImage" /><dc:title></dc:title></cc:Work></rdf:RDF></metadata>
<style
   id="style997"
   type="text/css">
	.st0{fill:#F39200;}
	.st1{fill:#F9B233;}
	.st2{fill:#FFFFFF;}
</style>
<defs
   id="defs999">
</defs>

<g
   transform="matrix(0.46492778,0,0,0.46492778,-20.163163,-19.666445)"
   id="g1007">
	<polygon
   style="fill:#f9b233"
   id="polygon1005"
   points="302.7,67.3 288.2,42.3 259.4,42.3 244.9,67.3 259.4,92.3 288.2,92.3 "
   class="st1" />
</g>
<g
   transform="matrix(0.46492778,0,0,0.46492778,-20.163163,-19.666445)"
   id="g1011">
	<polygon
   style="fill:#f9b233"
   id="polygon1009"
   points="347.4,93.1 333,68.1 304.2,68.1 289.7,93.1 304.2,118.1 333,118.1 "
   class="st1" />
</g>
<g
   transform="matrix(0.46492778,0,0,0.46492778,-20.163163,-19.666445)"
   id="g1015">
	<polygon
   style="fill:#f9b233"
   id="polygon1013"
   points="257.9,93.1 243.5,68.1 214.6,68.1 200.2,93.1 214.6,118.1 243.5,118.1 "
   class="st1" />
</g>
<g
   transform="matrix(0.50053079,0,0,0.50053079,-29.631423,-24.022049)"
   style="fill:#000000;fill-opacity:1"
   id="g1029">
	<path
   style="fill:#000000;fill-opacity:1"
   id="path1017"
   d="M 83,191.2 H 59.2 v -59.5 h 22.7 c 12.6,0 19.3,6.9 19.3,15.3 0,7.2 -4.4,11.6 -10.1,13.6 6.3,1.1 11.5,7.4 11.5,14.6 -0.1,9 -7.4,16 -19.6,16 z M 81,139.7 H 69 v 17 h 12 c 6.3,0 10.2,-3 10.2,-8.5 0,-5.4 -3.8,-8.5 -10.2,-8.5 z m 0.8,24.9 H 69 v 18.6 h 13.2 c 6.6,0 10.6,-3.3 10.6,-9.1 0,-5.9 -4.5,-9.5 -11,-9.5 z"
   class="st2" />
	<path
   style="fill:#000000;fill-opacity:1"
   id="path1019"
   d="M 146,139.6 H 122.9 V 157 h 20.5 v 8 h -20.5 v 18.2 H 146 v 8 H 113.1 V 131.6 H 146 Z"
   class="st2" />
	<path
   style="fill:#000000;fill-opacity:1"
   id="path1021"
   d="M 190.9,139.6 H 167.8 V 157 h 20.5 v 8 h -20.5 v 18.2 h 23.1 v 8 H 158 v -59.6 h 32.9 z"
   class="st2" />
	<path
   style="fill:#000000;fill-opacity:1"
   id="path1023"
   d="m 238.7,179 h -24.9 l -4.3,12.2 h -10.2 l 21.3,-59.6 H 232 l 21.3,59.6 H 243 Z M 226.3,143.4 216.5,171 H 236 Z"
   class="st2" />
	<path
   style="fill:#000000;fill-opacity:1"
   id="path1025"
   d="m 283.1,131.7 c 14.1,0 21.1,8.1 21.1,17.8 0,7 -3.8,14.6 -13.8,17 l 14.7,24.7 h -11.6 l -13.7,-23.8 h -7.4 v 23.8 h -9.8 v -59.5 z m 0,8 h -10.8 v 19.9 h 10.8 c 7.6,0 11,-4.2 11,-10.1 0,-6 -3.4,-9.8 -11,-9.8 z"
   class="st2" />
	<path
   style="fill:#000000;fill-opacity:1"
   id="path1027"
   d="m 343.8,130.9 c 12.4,0 23.1,6.2 27.6,17.9 h -11.7 c -3.2,-6.3 -8.8,-9.3 -15.9,-9.3 -11.8,0 -20.4,8.4 -20.4,21.8 0,13.4 8.6,21.9 20.4,21.9 7.1,0 12.8,-3 15.9,-9.3 h 11.7 c -4.5,11.6 -15.2,17.8 -27.6,17.8 -16.8,0 -30.4,-12.5 -30.4,-30.4 0,-17.8 13.6,-30.4 30.4,-30.4 z"
   class="st2" />
</g>


</svg>